<?xml version="1.0" encoding="UTF-8"?>
<!-- (c) Carrd Inc. All rights reserved. All logos and trademarks are property of their respective owners. -->
<svg xmlns="http://www.w3.org/2000/svg" version="1.1" xmlns:xlink="http://www.w3.org/1999/xlink" viewBox="0 0 40 40" display="none" width="0" height="0">
	<symbol id="arrow-right-alt-light" viewBox="0 0 40 40"><path d="M12.9,32.4L25.3,20L13,7.6c-0.2-0.2-0.2-0.5,0-0.7l1.6-1.6c0.2-0.2,0.5-0.2,0.7,0L29.8,20L15.1,34.6c-0.2,0.2-0.5,0.2-0.7,0 l-1.6-1.6C12.7,32.9,12.7,32.6,12.9,32.4z"/></symbol>
	<symbol id="cv" viewBox="0 0 40 40"><path d="M32.4,34.7c-0.3,0.3-0.7,0.5-1.1,0.5H9.1c-0.4,0-0.8-0.2-1.1-0.5c-0.3-0.3-0.5-0.7-0.5-1.1V6.4 C7.5,6,7.7,5.6,8,5.3C8.3,5,8.7,4.8,9.1,4.8h13.3l-0.1,9.3c0,0.4,0.2,0.8,0.5,1.1c0.3,0.3,0.7,0.5,1.1,0.5h9v17.9 C32.9,34,32.7,34.4,32.4,34.7z M14.4,23.5c0.3-0.5,0.8-0.8,1.4-0.8c0.3,0,0.5,0.1,0.7,0.2c0.2,0.1,0.4,0.3,0.6,0.5 c0.1,0.1,0.2,0.3,0.3,0.6l2.4-0.6c-0.3-1-0.8-1.7-1.4-2.1c-0.6-0.5-1.5-0.7-2.6-0.7c-1.4,0-2.5,0.4-3.2,1.2c-0.8,0.8-1.1,2-1.1,3.5 c0,1.1,0.2,2.1,0.7,2.8c0.4,0.7,1,1.2,1.5,1.5c0.6,0.3,1.4,0.4,2.3,0.4c0.8,0,1.4-0.1,1.9-0.4c0.5-0.2,0.9-0.6,1.3-1.1 c0.3-0.5,0.6-1,0.7-1.7l-2.4-0.7c-0.1,0.6-0.3,1-0.6,1.3c-0.3,0.3-0.7,0.5-1.2,0.5c-0.5,0-0.9-0.2-1.2-0.6C14.2,27,14,26.4,14,25.3 C14,24.5,14.2,23.9,14.4,23.5z M26.9,20.8L25,27.4l-2-6.6h-2.8l3.3,9.1h2.9l3.2-9.1H26.9z M24.5,5.5c0.2,0.2,0.4,0.3,0.6,0.5 l6.8,6.9c0.2,0.2,0.3,0.4,0.5,0.6l-7.9-0.1V5.5z"/></symbol>
	<symbol id="email" viewBox="0 0 40 40"><path d="M37.5,12.6l-17.5,11.9L2.5,12.6c-.2-.1-.3-.2-.5-.2v-2.7c0-.8.6-1.4,1.4-1.4h33.1c.8,0,1.4.6,1.4,1.4v2.7c-.2,0-.4,0-.5.2ZM19.5,26.3c.2.1.3.2.5.2s.4,0,.5-.2l17.5-11.9v16.9c0,.8-.6,1.4-1.4,1.4H3.4c-.8,0-1.4-.6-1.4-1.4V14.4l17.5,11.9Z" /></symbol>
	<symbol id="linkedin" viewBox="0 0 40 40"><path d="M12.1,13.8v19.1H5.7V13.8C5.7,13.8,12.1,13.8,12.1,13.8z M12.5,7.9c0,0.9-0.3,1.7-1,2.4c-0.7,0.6-1.5,0.9-2.6,0.9h0 c-1.1,0-1.9-0.3-2.5-0.9c-0.6-0.6-1-1.4-1-2.4c0-1,0.3-1.7,1-2.4S7.9,4.6,9,4.6s1.9,0.3,2.6,0.9S12.5,6.9,12.5,7.9z M35,22v11h-6.4 V22.7c0-1.4-0.3-2.4-0.8-3.2c-0.5-0.8-1.3-1.1-2.4-1.1c-0.8,0-1.5,0.2-2,0.7c-0.5,0.4-1,1-1.2,1.7c-0.1,0.4-0.2,0.9-0.2,1.6v10.7 h-6.4c0-5.1,0-9.3,0-12.5s0-5.1,0-5.7l0-0.9H22v2.8h0c0.3-0.4,0.5-0.8,0.8-1.1c0.3-0.3,0.6-0.6,1.1-1c0.5-0.4,1-0.6,1.7-0.8 c0.7-0.2,1.4-0.3,2.2-0.3c2.2,0,4,0.7,5.3,2.2C34.4,17,35,19.1,35,22L35,22z"/></symbol>
	<symbol id="itchio-alt" viewBox="0 0 40 40"><path d="M5.6,2.7c-1.7,1-5.1,4.8-5.1,5.9v1.7c0,2.1,2,4,3.8,4c2.2,0,4-1.8,4-3.9c0,2.1,1.7,3.9,3.9,3.9c2.2,0,3.8-1.8,3.8-3.9 c0,2.1,1.8,3.9,4,3.9h0c2.2,0,4-1.8,4-3.9c0,2.1,1.7,3.9,3.8,3.9c2.2,0,3.9-1.8,3.9-3.9c0,2.1,1.8,3.9,4,3.9c1.8,0,3.8-1.9,3.8-4 V8.6c0-1-3.4-4.8-5.1-5.9c-5.3-0.2-9-0.2-14.4-0.2C14.5,2.5,7.1,2.6,5.6,2.7L5.6,2.7z M15.9,13.2c-0.2,0.4-0.5,0.7-0.8,1 c-0.8,0.8-1.9,1.3-3.2,1.3c-1.2,0-2.3-0.5-3.2-1.3c-0.3-0.3-0.5-0.6-0.7-1l0,0c-0.2,0.4-0.5,0.7-0.8,1c-0.8,0.8-2,1.3-3.2,1.3 c-0.1,0-0.3,0-0.4-0.1c-0.2,1.8-0.2,3.5-0.3,4.8l0,0c0,0.6,0,1.2,0,1.9c0,3.8-0.4,12.3,1.7,14.3c3.2,0.7,9,1.1,14.9,1.1h0 c5.9,0,11.7-0.3,14.9-1.1c2-2.1,1.6-10.6,1.7-14.3c0-0.7,0-1.3,0-1.9l0,0c0-1.3-0.1-3-0.3-4.8c-0.1,0-0.3,0.1-0.4,0.1 c-1.2,0-2.3-0.5-3.2-1.3c-0.3-0.3-0.6-0.6-0.8-1l0,0c-0.2,0.4-0.4,0.7-0.7,1c-0.8,0.8-2,1.3-3.2,1.3c-1.2,0-2.3-0.5-3.2-1.3 c-0.3-0.3-0.6-0.6-0.8-1c-0.2,0.4-0.5,0.7-0.8,1c-0.8,0.8-2,1.3-3.2,1.3c0,0-0.1,0-0.1,0h0c0,0-0.1,0-0.1,0c-1.2,0-2.3-0.5-3.2-1.3 C16.4,13.9,16.2,13.6,15.9,13.2L15.9,13.2z M12.7,17.4L12.7,17.4L12.7,17.4c1.3,0,2.4,0,3.9,1.5c1.1-0.1,2.3-0.2,3.5-0.2h0 c1.2,0,2.3,0.1,3.5,0.2c1.4-1.5,2.6-1.5,3.9-1.5h0l0,0c0.6,0,3,0,4.7,4.8l1.8,6.5c1.4,4.9-0.4,5-2.7,5c-3.3-0.1-5.1-2.5-5.1-4.9 c-1.8,0.3-4,0.4-6.1,0.4h0c-2.1,0-4.3-0.1-6.1-0.4c0,2.4-1.8,4.8-5.1,4.9c-2.2,0-4-0.1-2.7-5l1.8-6.5C9.6,17.4,12.1,17.4,12.7,17.4 L12.7,17.4z M20,21.2L20,21.2c0,0-3.5,3.2-4.1,4.3l2.3-0.1v2c0,0.1,0.9,0.1,1.8,0h0c0.9,0,1.8,0.1,1.8,0v-2l2.3,0.1 C23.5,24.3,20,21.2,20,21.2L20,21.2L20,21.2L20,21.2z"/></symbol>
	<symbol id="github" viewBox="0 0 40 40"><path d="M36,20.3c0,3.5-1,6.6-3.1,9.4c-2,2.8-4.7,4.7-7.9,5.8c-0.4,0.1-0.6,0-0.8-0.1c-0.2-0.2-0.3-0.4-0.3-0.6v-4.4 c0-1.3-0.4-2.3-1.1-3c0.8-0.1,1.5-0.2,2.1-0.4c0.6-0.2,1.3-0.4,2-0.8c0.7-0.4,1.2-0.8,1.7-1.4c0.5-0.5,0.8-1.3,1.1-2.2 s0.4-2,0.4-3.1c0-1.7-0.5-3.1-1.6-4.3c0.5-1.3,0.5-2.7-0.2-4.2c-0.4-0.1-1,0-1.7,0.2c-0.7,0.3-1.4,0.6-1.9,0.9L24,12.5 c-1.3-0.4-2.6-0.5-4-0.5s-2.7,0.2-4,0.5c-0.2-0.2-0.5-0.3-0.9-0.6c-0.4-0.2-0.9-0.5-1.7-0.8c-0.8-0.3-1.4-0.4-1.8-0.3 c-0.6,1.6-0.7,3-0.1,4.2c-1.1,1.2-1.6,2.6-1.6,4.3c0,1.2,0.1,2.2,0.4,3.1s0.6,1.6,1.1,2.2s1,1,1.7,1.4c0.7,0.4,1.3,0.6,2,0.8 c0.6,0.2,1.3,0.3,2.1,0.4c-0.6,0.5-0.9,1.2-1,2.1c-0.3,0.1-0.6,0.2-0.9,0.3c-0.3,0.1-0.7,0.1-1.2,0.1c-0.5,0-0.9-0.1-1.4-0.4 c-0.5-0.3-0.8-0.7-1.2-1.3c-0.3-0.4-0.6-0.8-1-1.1c-0.4-0.3-0.8-0.4-1-0.5L9,26.5c-0.3,0-0.5,0-0.6,0.1c-0.1,0.1-0.1,0.1-0.1,0.2 c0,0.1,0.1,0.2,0.2,0.3c0.1,0.1,0.2,0.2,0.3,0.2l0.1,0.1c0.3,0.1,0.6,0.4,0.9,0.8s0.5,0.7,0.7,1.1l0.2,0.5c0.2,0.5,0.5,1,0.9,1.3 c0.4,0.3,0.9,0.5,1.4,0.6c0.5,0.1,1,0.1,1.4,0.1c0.5,0,0.9,0,1.2-0.1l0.5-0.1c0,0.5,0,1.1,0,1.9c0,0.7,0,1.1,0,1.1 c0,0.2-0.1,0.5-0.3,0.6c-0.2,0.2-0.5,0.2-0.8,0.1c-3.2-1.1-5.8-3-7.9-5.8S4,23.8,4,20.3c0-2.9,0.7-5.6,2.1-8S9.5,7.8,12,6.4 s5.1-2.1,8-2.1s5.6,0.7,8,2.1s4.4,3.4,5.8,5.8S36,17.4,36,20.3L36,20.3z"/></symbol>
</svg>
